<?xml version="1.0" encoding="utf-8"?>
<!-- Generator: Adobe Illustrator 19.1.0, SVG Export Plug-In . SVG Version: 6.00 Build 0)  -->
<svg version="1.1" id="Layer_1" xmlns="http://www.w3.org/2000/svg" xmlns:xlink="http://www.w3.org/1999/xlink" x="0px" y="0px"
	 viewBox="-447 449 128 128" style="enable-background:new -447 449 128 128;" xml:space="preserve">
<style type="text/css">
	.st0{fill:#33809D;}
</style>
<g id="facebook_2_">
	<path class="st0" d="M-319,462.3v101.3c0,7.4-6,13.3-13.3,13.3h-29.4V529h16l4-21.3h-20l0.5-10.9c0-5.3,1.4-8.4,8.5-8.4h11.3
		l2.6-19.1c0,0-12.1-1.6-19.3-1.6c-16,0-25.3,10.7-25.3,27.2l0.4,12.8h-16V529h16v48h-50.7c-7.3,0-13.3-6-13.3-13.3V462.3
		c0-7.3,6-13.3,13.3-13.3h101.3C-325,449-319,455-319,462.3z"/>
</g>
</svg>
