<?xml version="1.0" encoding="iso-8859-1"?>
<!-- Generator: Adobe Illustrator 18.1.1, SVG Export Plug-In . SVG Version: 6.00 Build 0)  -->
<svg version="1.1" id="Capa_1" xmlns="http://www.w3.org/2000/svg" xmlns:xlink="http://www.w3.org/1999/xlink" x="0px" y="0px"
	 viewBox="0 0 525.166 525.166" style="enable-background:new 0 0 525.166 525.166;fill: #a6ce39;" xml:space="preserve">
<g>
	<path d="M448.245,76.92l69.626-69.626H332.186v185.685l69.648-69.648c76.847,76.825,76.847,201.659,0,278.484
		c-23.413,23.457-51.509,39.977-81.224,48.686v67.788c46.695-10.437,91.201-33.588,127.656-70.02
		C550.803,345.623,550.803,179.543,448.245,76.92z M123.351,401.814c-76.847-76.825-76.847-201.659,0-278.484
		c23.413-23.457,51.487-39.955,81.224-48.664V6.878c-46.695,10.437-91.201,33.588-127.656,70.02
		c-102.558,102.624-102.558,268.703,0,371.349L7.292,517.873h185.685V332.188L123.351,401.814z"/>
</g>
<g>
</g>
<g>
</g>
<g>
</g>
<g>
</g>
<g>
</g>
<g>
</g>
<g>
</g>
<g>
</g>
<g>
</g>
<g>
</g>
<g>
</g>
<g>
</g>
<g>
</g>
<g>
</g>
<g>
</g>
</svg>
