<?xml version="1.0" encoding="utf-8"?>
<!-- Generator: Adobe Illustrator 19.1.0, SVG Export Plug-In . SVG Version: 6.00 Build 0)  -->
<svg version="1.1" id="Layer_1" xmlns="http://www.w3.org/2000/svg" xmlns:xlink="http://www.w3.org/1999/xlink" x="0px" y="0px"
	 viewBox="0 0 128 128" style="enable-background:new 0 0 128 128;" xml:space="preserve">
<style type="text/css">
	.st0{fill:#33809D;}
</style>
<g id="google-plus_2_">
	<path class="st0" d="M28.9,87.9c-0.8-0.6-2.3-1.4-2.3-3c0,0,0-3.4,0-5.7C19.3,79.3,3,78.2,0,60.5v39.3c9.2-7.9,25-8.8,31.5-8.8
		C31.1,89.2,29.8,88.6,28.9,87.9z"/>
	<path class="st0" d="M31.9,70.9c0.8,0,1.7-0.1,2.5-0.3c7.1-1.9,10.7-11.8,7.9-22c-2.4-8.9-8.9-15.3-15.5-15.3
		c-0.8,0-1.7,0.1-2.5,0.3c-3.4,0.9-6.1,3.7-7.6,7.7c-1.6,4.2-1.7,9.3-0.3,14.3C18.9,64.5,25.4,70.9,31.9,70.9z"/>
	<path class="st0" d="M114.7,0H13.3C6,0,0,6,0,13.3v36.1c4-22.2,32.2-22.7,32.5-22.7H64v0c0,3.7-4.9,4.4-9.3,4.9
		c-1.1,0.1-2.4,0.3-3.4,0.6c7.5,4.2,8.2,11.1,8.2,20.3c0,10.9-6.3,16.1-10.9,19.9c-2.9,2.4-5.1,4.3-5.1,6.7c0,2.3,3.1,4.9,6.8,7.8
		c6.1,5,14.6,11.8,14.6,23.4c0,7.2-2.2,13.1-6.3,17.7h56.1c7.3,0,13.3-6,13.3-13.3V13.3C128,6,122,0,114.7,0z M122.7,53.3h-21.3
		v21.3H96V53.3H74.7V48H96V26.7h5.3V48h21.3V53.3z"/>
	<path class="st0" d="M31.4,97.9c-0.7,0-1.4,0-2.1,0.1c-6,0.4-11.6,2.5-15.6,5.9c-3.9,3.3-5.9,7.4-5.7,11.7
		c0.4,5.4,4.6,10,10.7,12.5h21.7c7.7-3,12.8-9,12.3-15.5C52.2,104.3,42.8,97.9,31.4,97.9z"/>
</g>
</svg>
