<?xml version="1.0" encoding="utf-8"?>
<!-- Generator: Adobe Illustrator 19.1.0, SVG Export Plug-In . SVG Version: 6.00 Build 0)  -->
<svg version="1.1" id="Layer_1" xmlns="http://www.w3.org/2000/svg" xmlns:xlink="http://www.w3.org/1999/xlink" x="0px" y="0px"
	 viewBox="-447 449 128 128" style="enable-background:new -447 449 128 128;" xml:space="preserve">
<style type="text/css">
	.st0{fill:#33809D;}
</style>
<g id="twitter_2_">
	<path class="st0" d="M-332.3,449h-101.4c-7.3,0-13.3,6-13.3,13.3v101.3c0,7.4,6,13.4,13.3,13.4h101.3c7.3,0,13.3-6,13.3-13.3V462.3
		C-319,455-325,449-332.3,449z M-344.9,496.5c0,0.8,0.1,1.6,0.1,2.5c0,25.3-19.2,54.4-54.4,54.4c-10.8,0-20.8-3.2-29.3-8.6
		c1.5,0.2,3,0.3,4.6,0.3c9,0,17.2-3.1,23.7-8.2c-8.4-0.2-15.4-5.7-17.9-13.3c1.2,0.2,2.4,0.3,3.6,0.3c1.7,0,3.4-0.2,5-0.7
		c-8.7-1.7-15.3-9.5-15.3-18.7c0-0.1,0-0.2,0-0.2c2.6,1.4,5.5,2.3,8.7,2.4c-5.1-3.4-8.5-9.3-8.5-15.9c0-3.5,0.9-6.8,2.6-9.6
		c9.4,11.6,23.5,19.2,39.4,20c-0.3-1.4-0.5-2.9-0.5-4.4c0-10.5,8.6-19.1,19.1-19.1c5.5,0,10.5,2.3,14,6c4.4-0.9,8.4-2.4,12.1-4.6
		c-1.4,4.5-4.5,8.2-8.4,10.6c3.9-0.4,7.6-1.5,11-3C-337.9,490.4-341.2,493.8-344.9,496.5z"/>
</g>
</svg>
